# xmcd
#
# Track frame offsets: 
#        150
#        21457
#        44795
#        67960
#        87670
#        106060
#        123662
#        144405
#        160737
#        172860
#        184672
#        206343
#
# Disc length: 2997 seconds
#
# Revision: 1
# Processed by: cddbd v1.5.2PL0 Copyright (c) Steve Scherf et al.
# Submitted via: ExactAudioCopy v0.99pb4
#
DISCID=a40bb30c
DTITLE=Michel Grailier and Alain jean-Marie - Portrait In Black And Whit
DTITLE=e
DYEAR=1991
DGENRE=Jazz
TTITLE0=How Deep Is The Ocean
TTITLE1=Zingaro
TTITLE2=A Time For Love
TTITLE3=In Your Own Street Way
TTITLE4=A Child Is Born
TTITLE5=Tell Me A Bedtime Story
TTITLE6=My Foolish Heart
TTITLE7=Broken Wing
TTITLE8=Peace
TTITLE9=Ray's Idea
TTITLE10=Bars For Barney
TTITLE11=How Deep Is The Ocean
EXTD=YEAR: 1991
EXTT0=
EXTT1=
EXTT2=
EXTT3=
EXTT4=
EXTT5=
EXTT6=
EXTT7=
EXTT8=
EXTT9=
EXTT10=
EXTT11=
PLAYORDER=
